<svg width="836" height="976" viewBox="0 0 836 976" fill="none" xmlns="http://www.w3.org/2000/svg">
<path fill-rule="evenodd" clip-rule="evenodd" d="M494.23 1.58357C486.97 4.18157 480.123 10.2506 476.5 17.2986C473.854 22.4446 473.5 24.1456 473.5 31.6986C473.5 38.7406 473.931 41.1386 475.923 45.1866C480.623 54.7366 490.362 61.7336 501.113 63.2846C506.765 64.0996 516.384 61.8216 521.728 58.4036C534.018 50.5406 539.321 35.1556 534.604 21.0436C532.398 14.4456 525.331 6.47157 518.718 3.12057C511.848 -0.360434 501.48 -1.01143 494.23 1.58357ZM508.48 23.7556C511.448 24.8846 513.908 29.7956 513.244 33.2686C511.965 39.9606 502.768 42.5196 498.37 37.4076C495.077 33.5786 495.277 29.3326 498.923 25.6866C502.019 22.5906 504.237 22.1426 508.48 23.7556ZM207.5 76.1016C201.361 78.1366 197.859 80.2156 193.611 84.3476C181.325 96.2976 181.326 116.864 193.613 129.151C199.752 135.29 207.035 138.251 216 138.251C222.008 138.251 224.594 137.732 229 135.645C249.199 126.073 253.979 100.161 238.457 84.3746C230.919 76.7076 216.943 72.9726 207.5 76.1016ZM222.128 100.38C226.34 104.192 225.193 111.578 219.97 114.28C214.395 117.162 208.612 114.345 207.486 108.198C206.018 100.186 216.015 94.8466 222.128 100.38ZM576.063 117.956C569.476 120.485 562.399 127.262 559.032 134.264C555.39 141.84 555.505 153.237 559.3 160.967C568.641 179.988 593.429 185.074 608.92 171.146C611.806 168.552 615.075 164.271 616.695 160.967C619.057 156.149 619.488 154.022 619.47 147.264C619.451 140.09 619.097 138.611 616.045 132.938C614.172 129.459 610.844 125.075 608.65 123.196C600.133 115.906 586.931 113.783 576.063 117.956ZM385 120.192C352.376 127.1 326.891 152.447 320.507 184.336C319.126 191.235 318.935 199.307 319.195 239.836L319.5 287.264L322.765 296.615C327.045 308.874 332.651 318.296 340.812 326.947C357.517 344.656 376.436 352.935 400.5 353.067C415.267 353.149 422.737 351.422 436.5 344.745C458.216 334.209 472.208 317.492 479.628 293.215L482.364 284.264L482.769 242.81C483.219 196.757 482.555 186.997 478.088 174.035C469.34 148.646 447.66 128.447 421.5 121.309C413.232 119.054 393.262 118.442 385 120.192ZM593.288 140.776C599.687 145.809 596.425 155.651 588.332 155.732C583.815 155.778 582.127 154.911 580.463 151.692C578.293 147.496 578.665 144.945 581.923 141.687C585.416 138.194 589.581 137.86 593.288 140.776ZM418.667 144.645C431.583 149.01 442.588 157.574 450.116 169.118C459.306 183.208 460.279 190.542 459.781 241.919L459.4 281.264L456.722 289.264C450.167 308.851 433.654 324.162 414 328.877C406.268 330.732 392.743 330.482 385.5 328.35C369.532 323.651 355.614 312.43 348.751 298.722C342.135 285.508 342 284.262 342 236.603C342 209.662 342.403 191.904 343.09 188.563C343.69 185.649 346 179.439 348.225 174.764C355.397 159.694 369.346 148.291 386.202 143.718C395.564 141.179 409.598 141.579 418.667 144.645ZM652.5 198.915C640.593 200.355 629.369 205.557 620.61 213.694C617.905 216.208 585.547 253.364 548.705 296.264C511.862 339.164 479.644 376.457 477.109 379.137C471.075 385.516 461.325 391.817 452 395.364L444.5 398.217L405.028 398.555C355.111 398.981 350.363 398.246 334.48 387.622C328.447 383.587 323.759 378.813 309.284 361.964C200.492 235.331 181.582 213.63 177.316 210.521C164.959 201.514 154.425 198.384 138.5 198.99C121.8 199.624 110.348 204.576 98.549 216.264C87.455 227.254 81.622 241.684 81.572 258.264C81.538 269.712 84.029 279.14 89.441 288.051C91.183 290.918 118.009 326.339 149.054 366.764C180.099 407.188 207.904 443.841 210.842 448.215C221.164 463.58 229.792 482.861 235.028 502.264C238.804 516.253 238.838 518.337 235.308 519.223C227.081 521.288 195.174 534.067 180.358 541.231C145.453 558.11 120.21 575.094 97.1 597.251C68.019 625.134 50.17 655.596 42.893 689.764C39.919 703.731 39.703 727.7 42.424 741.764C47.362 767.281 60.573 794.788 77.823 815.47C80.671 818.884 83 822.121 83 822.664C83 823.207 75.982 833.226 67.404 844.927C50.69 867.727 47.491 873.147 43.866 884.799C41.994 890.818 41.549 894.492 41.57 903.764C41.6 917.543 43.288 924.826 49.214 936.764C54.726 947.867 67.93 961.478 78.5 966.954C91.08 973.471 98.717 975.272 113.5 975.207C125.372 975.154 127.26 974.882 135.261 972.072C154.496 965.315 162.571 957.907 186.025 925.497C197.247 909.989 202.978 902.868 204 903.159C204.825 903.395 211.738 905.893 219.361 908.71C266.23 926.029 322.354 936.573 378.838 938.673C454.032 941.469 527.141 930.006 591.273 905.366C594.998 903.935 598.211 902.764 598.413 902.764C598.616 902.764 605.435 911.877 613.567 923.014C633.659 950.532 637.534 955.229 644.5 960.515C666.652 977.324 696.085 980.306 720.269 968.191C755.537 950.524 770.009 908.477 752.942 873.264C750.709 868.656 742.492 856.359 733.563 844.264C725.037 832.714 718.054 823.039 718.046 822.764C718.037 822.489 720.918 818.664 724.448 814.264C743.052 791.078 754.977 765.104 759.535 737.845C761.946 723.425 761.126 700.552 757.668 685.75C741.495 616.529 673.735 556.023 574.5 522.188C568.45 520.125 563.324 518.297 563.108 518.126C562.287 517.472 565.446 504.743 569.605 491.947C574.49 476.916 582.428 460.32 590.458 448.351C593.442 443.903 614.203 416.414 636.594 387.264C707.407 295.073 710.886 290.437 713.946 284.222C718.558 274.853 720.302 265.922 719.699 254.764C718.517 232.926 706.588 214.688 687.108 204.938C675.995 199.376 664.801 197.428 652.5 198.915ZM157.056 225.008C160.05 226.476 164.802 230.059 167.615 232.971C170.428 235.882 202.89 273.364 239.752 316.264C276.613 359.164 308.962 396.349 311.637 398.897C321.319 408.122 332.798 414.579 347.305 418.961C354.082 421.008 356.908 421.157 396 421.533C425.145 421.812 439.731 421.575 444.994 420.735C460.043 418.335 475.115 411.436 486.829 401.586C490.473 398.523 523.596 360.827 564.879 312.764C635.84 230.147 636.671 229.227 643.448 225.764C649.94 222.447 650.827 222.264 660.399 222.264C669.361 222.264 671.12 222.569 676 224.973C694.267 233.971 702.176 256.07 693.382 273.54C691.797 276.688 666.658 310.314 637.518 348.264C608.377 386.214 581.69 421.067 578.213 425.715C556.018 455.385 542.287 490.754 538.015 529.264C537.466 534.214 537.013 559.303 537.008 585.018L537 631.773L525.75 631.136C505.983 630.016 488.549 633.495 470.5 642.158C452.75 650.678 437.236 663.776 426.846 679.014C424.69 682.177 418.174 693.427 412.367 704.014C406.559 714.602 401.467 723.625 401.051 724.067C400.635 724.508 395.43 715.958 389.483 705.067C376.392 681.087 372.839 675.716 363.626 665.973C340.588 641.608 308.677 629.086 274.856 631.14L264 631.8L263.982 582.032C263.962 527.368 263.523 521.355 257.909 498.811C252.459 476.92 243.361 455.965 231.189 437.264C227.967 432.314 208.755 406.664 188.494 380.264C116.184 286.043 110.259 278.215 108.236 274.239C99.851 257.755 106.003 236.293 121.761 227.058C129.476 222.537 132.874 221.717 142.556 222.039C149.95 222.284 152.611 222.829 157.056 225.008ZM67.407 368.81C60.785 370.098 54.381 373.627 49.957 378.427C43.881 385.018 41.623 390.759 41.556 399.782C41.507 406.33 41.926 408.166 44.8 414.006C56.619 438.024 90.274 437.587 101.968 413.264C105.61 405.688 105.495 394.291 101.7 386.561C95.408 373.749 80.826 366.201 67.407 368.81ZM777.801 368.791C752.758 373.013 742.858 404.692 761.022 422.481C767.968 429.284 772.937 431.221 783.5 431.244C791.627 431.262 793.02 430.976 797.855 428.298C816.89 417.755 820.763 392.762 805.698 377.697C800.568 372.568 796.063 370.247 788.535 368.855C785.289 368.255 782.603 367.817 782.566 367.882C782.53 367.946 780.385 368.356 777.801 368.791ZM77.455 392.385C79.432 393.144 82 397.893 82 400.791C82 403.977 76.724 408.764 73.212 408.764C64.879 408.764 61.294 398.128 67.913 393.046C69.621 391.735 74.822 391.375 77.455 392.385ZM789.545 394.219C794.873 399.546 790.892 408.658 783.205 408.732C776.043 408.801 772.174 399.401 777.174 394.078C780.228 390.828 786.223 390.896 789.545 394.219ZM124.951 460.064C116.252 462.529 109.454 468.244 104.759 477.042C102.875 480.571 102.506 482.824 102.506 490.764C102.506 498.749 102.871 500.949 104.796 504.559C108.339 511.203 113.634 516.44 119.839 519.437C124.521 521.699 126.884 522.179 133.5 522.213C140.27 522.248 142.371 521.828 147.161 519.48C153.377 516.432 158.674 511.179 162.204 504.559C165.538 498.308 165.538 483.22 162.204 476.969C156.508 466.288 147.323 460.089 135.951 459.251C132.198 458.974 127.597 459.314 124.951 460.064ZM659.5 460.102C653.323 462.149 649.843 464.233 645.613 468.418C633.312 480.587 633.312 500.851 645.613 513.151C657.902 525.44 678.376 525.441 690.457 513.153C702.642 500.76 702.647 480.477 690.467 468.297C682.863 460.694 668.882 456.994 659.5 460.102ZM138.923 484.353C141.371 486.412 142 487.724 142 490.764C142 493.804 141.371 495.116 138.923 497.175C137.231 498.599 134.791 499.764 133.5 499.764C132.209 499.764 129.769 498.599 128.077 497.175C125.629 495.116 125 493.804 125 490.764C125 487.724 125.629 486.412 128.077 484.353C129.769 482.929 132.209 481.764 133.5 481.764C134.791 481.764 137.231 482.929 138.923 484.353ZM674.474 484.793C677.288 487.607 677.155 494.054 674.222 496.986C671.391 499.818 665.054 500.028 662.137 497.388C657.773 493.438 658.77 485.748 664 483.017C667.123 481.387 671.873 482.193 674.474 484.793ZM792.275 517.36C786.55 519.466 778.472 526.94 775.204 533.156C772.867 537.601 772.518 539.433 772.518 547.264C772.518 555.081 772.867 556.921 775.173 561.264C776.633 564.014 779.554 567.925 781.664 569.955C799.985 587.583 831.108 577.384 834.79 552.547C836.889 538.384 830.208 525.051 817.791 518.626C812.187 515.726 798.556 515.05 792.275 517.36ZM20.5 538.186C12.734 541.421 4.91199 549.503 2.48899 556.797C-4.53501 577.944 10.501 599.177 32.5 599.177C59.669 599.177 73.989 566.938 55.931 546.423C47.321 536.642 32.489 533.193 20.5 538.186ZM809.545 541.219C811.24 542.913 812 544.785 812 547.264C812 549.743 811.24 551.615 809.545 553.309C807.851 555.004 805.979 555.764 803.5 555.764C801.021 555.764 799.149 555.004 797.455 553.309C795.76 551.615 795 549.743 795 547.264C795 544.785 795.76 542.913 797.455 541.219C799.149 539.524 801.021 538.764 803.5 538.764C805.979 538.764 807.851 539.524 809.545 541.219ZM241 590.148V638.532L235.444 640.787C226.862 644.27 210.288 655.795 202.171 663.924C197.311 668.791 178.443 693.616 146.174 737.6L97.507 803.936L94.684 800.6C81.821 785.399 69.797 760.39 65.436 739.764C63.014 728.312 62.967 706.466 65.337 694.489C76.32 638.995 126.465 588.27 202.564 555.675C214.057 550.752 237.914 541.85 239.75 541.799C240.733 541.771 241 552.089 241 590.148ZM571.987 545.308C641.371 569.458 695.871 609.157 720.772 653.684C731.641 673.119 736.929 691.412 737.705 712.264C738.506 733.773 734.095 753.685 724.149 773.469C718.809 784.089 704.647 804.937 703.643 803.656C703.475 803.44 681.773 773.794 655.418 737.776C604.028 667.543 597.787 660.021 582.659 650.078C578.346 647.244 571.484 643.426 567.41 641.594L560.002 638.264L560.001 590.014C560 561.96 560.378 541.764 560.903 541.764C561.4 541.764 566.388 543.359 571.987 545.308ZM38.077 561.687C46.124 569.734 34.819 581.58 26.527 573.79C22.375 569.888 23.413 561.746 28.315 559.771C32.298 558.166 35.108 558.718 38.077 561.687ZM297.452 655.284C312.607 657.926 326.728 664.449 339.629 674.764C349.738 682.847 356.468 692.698 374.5 725.798C392.722 759.248 393.873 760.753 401.234 760.76C403.935 760.763 405.779 760.003 407.896 758.014C409.506 756.501 417.893 742.214 426.534 726.264C444.458 693.176 447.873 687.988 458.172 678.205C469.704 667.251 482.376 660.416 499 656.184C508.828 653.682 530.324 653.635 540.329 656.094C556.082 659.965 569.738 667.474 581.333 678.638C586.24 683.364 608.325 712.656 658.329 780.764C696.892 833.289 729.772 878.708 731.395 881.696C741.547 900.378 737.498 924.755 721.835 939.257C702.737 956.938 673.908 957.043 655.724 939.499C652.714 936.594 623.476 897.618 590.051 851.951C543.305 788.084 529.066 769.286 526.513 768.069C522.392 766.104 517.096 766.951 514.264 770.029C513.134 771.258 507.843 780.139 502.508 789.764C488.378 815.254 482.028 823.599 468.556 834.382C454.579 845.57 435.622 853.933 417.747 856.797C405.648 858.736 383.785 857.55 372.107 854.322C353.005 849.043 337.008 839.59 323.342 825.507C313.561 815.427 309.898 810.036 298.036 788.264C288.574 770.896 286.567 768.303 281.753 767.223C274.275 765.545 276.598 762.755 212.338 850.572C179.46 895.503 150.098 934.869 147.09 938.053C136.701 949.05 120.18 954.571 105.294 952.022C71.712 946.269 53.862 908.689 70.993 879.803C75.223 872.669 209.462 689.983 215.521 683.114C228.093 668.86 247.848 658.137 267.66 654.812C275.647 653.471 288.199 653.67 297.452 655.284ZM555.394 843.519C571.189 865.109 583.85 883.198 583.529 883.717C582.495 885.39 546.714 896.644 527.832 901.235C485.018 911.645 448.209 915.847 400.067 915.82C348.3 915.791 305.284 910.26 259.814 897.785C245.117 893.753 219.155 885.161 217.757 883.866C217.046 883.207 276.203 801.519 277.75 801.024C278.162 800.892 281.2 805.595 284.5 811.474C304.002 846.22 332.011 868.008 369.203 877.362C383.327 880.914 407.093 881.792 422.15 879.317C448.93 874.915 472.103 863.372 491.289 844.876C502.152 834.404 508.833 825.639 517.038 811.092C523.233 800.111 523.366 799.96 525.007 802.094C525.925 803.288 539.599 821.929 555.394 843.519Z" fill="black"/>
</svg>
